<svg width="100" height="15" viewBox="0 0 100 15" fill="none" xmlns="http://www.w3.org/2000/svg">
<g clip-path="url(#clip0_119_299)">
<path d="M10.4945 9.94505L12.4313 14.5032H7.25236L5.59485 10.3594H5.18047V14.5032H0V0H8.28754C11.0501 0 12.4313 1.38126 12.4313 4.14377V6.21566C12.4313 8.10085 11.7862 9.34398 10.4945 9.94505ZM7.25236 6.21566V4.14377H5.18047V6.21566H7.25236Z" fill="#EBE838"/>
<path d="M13.468 0H23.8274V4.14377H18.647V5.18047H21.7556V9.32425H18.647V10.3609H23.8274V14.5047H13.468V0Z" fill="#EBE838"/>
<path d="M34.1869 0H39.3674L35.2236 14.5032H29.008L24.8627 0H30.0416L32.1135 8.28754L34.1869 0Z" fill="#EBE838"/>
<path d="M39.6041 10.3594V4.14377C39.6041 1.38126 40.9854 0 43.7479 0H47.8917C50.6542 0 52.0354 1.38126 52.0354 4.14377V10.3594C52.0354 13.1219 50.6542 14.5032 47.8917 14.5032H43.7479C40.9854 14.5032 39.6041 13.1219 39.6041 10.3594ZM44.7831 4.14377V10.3594H46.855V4.14377H44.7831Z" fill="#EBE838"/>
<path d="M53.0722 0H58.2511V10.3594H62.3949V14.5032H53.0707V0H53.0722Z" fill="#EBE838"/>
<path d="M69.9584 0H75.1389L70.9951 14.5032H64.7794L60.6342 0H65.8131L67.885 8.28754L69.9584 0Z" fill="#EBE838"/>
<path d="M76.1741 0H86.5335V4.14377H81.353V5.18047H84.4616V9.32425H81.353V10.3609H86.5335V14.5047H76.1741V0Z" fill="#EBE838"/>
<path d="M98.0632 9.94505L100 14.5032H94.821L93.1635 10.3594H92.7491V14.5032H87.5702V0H95.8577C98.6203 0 100.002 1.38126 100.002 4.14377V6.21566C100.002 8.10085 99.3564 9.34398 98.0647 9.94505H98.0632ZM94.821 6.21566V4.14377H92.7491V6.21566H94.821Z" fill="#EBE838"/>
</g>
<defs>
<clipPath id="clip0_119_299">
<rect width="100" height="14.5032" fill="white"/>
</clipPath>
</defs>
</svg>
